<?xml version="1.0" encoding="UTF-8"?>
<svg xmlns="http://www.w3.org/2000/svg" viewBox="0 0 351.7 358.89">
  <defs>
    <style>
      .cls-1, .cls-2, .cls-3 {
        stroke-width: 12px;
      }

      .cls-1, .cls-2, .cls-3, .cls-4, .cls-5 {
        fill: none;
        stroke: #000;
      }

      .cls-1, .cls-3, .cls-5 {
        stroke-linejoin: round;
      }

      .cls-1, .cls-4, .cls-5 {
        stroke-linecap: round;
      }

      .cls-2, .cls-4 {
        stroke-miterlimit: 10;
      }

      .cls-3 {
        stroke-linecap: square;
      }

      .cls-4, .cls-5 {
        stroke-width: 10px;
      }
    </style>
  </defs>
  <g id="_图层_1" data-name="图层 1">
    <path class="cls-5" d="M245.09,138.04c8.08-3.29,18-8.15,28.44-15.4,9.3-6.46,16.64-13.15,22.22-18.97"/>
    <path class="cls-5" d="M252.96,152.08c7.75-2.96,17.85-7.71,28.44-15.4,11.7-8.5,19.87-17.6,25.22-24.56"/>
    <path class="cls-4" d="M69.24,353.89c14.31-8.91,29.65-20.51,44.44-35.56,21.42-21.77,33.37-42.24,37.41-49.48,9.17-16.44,14.79-31.39,18.3-42.67"/>
  </g>
  <g id="_图层_2" data-name="图层 2">
    <circle class="cls-2" cx="26.05" cy="295.27" r="20.05"/>
    <circle class="cls-2" cx="320.12" cy="90.39" r="25.57" transform="translate(179.62 391.9) rotate(-80.78)"/>
    <path class="cls-1" d="M174.55,124.83c-8.33-18.26-17.69-31.78-24.89-40.89-9.44-11.94-18.28-20.23-26.5-27.94-6.15-5.77-12.88-12.03-22.83-19.17-1.98-1.42-9.6-6.83-21.62-13.45C57.01,11.42,42.17,7.21,29.05,6.17c-4.94-.39-8.84-.27-11.83,2.22-6.61,5.52-3.92,18.67-2.67,24.44,1.97,9.08,8.19,29.41,46.67,67.11,17.89,17.52,30.63,29.81,52,40.89,13.28,6.89,25.27,10.91,34.09,13.33"/>
    <path class="cls-3" d="M255.89,174.91c-.12-3.4-.6-8.27-2.26-13.85-1.13-3.81-4.04-13.18-12.44-21.78-7.35-7.52-15.14-10.59-20-12.44-4.78-1.83-13.48-5.04-24.89-4-10.12.92-17.32,4.72-21.74,7.11-3.86,2.09-9.81,5.38-15.59,11.9-2.02,2.28-7.53,8.91-10.67,19.21-3.94,12.93-1.75,23.72-.78,28.19,2.72,12.56,8.77,20.65,10,22.26,1.5,1.96,6.35,8.01,14.74,13.19,8.81,5.43,16.83,7.01,19.59,7.48,3.35.57,9.81,1.33,17.78,0,6.06-1.01,10.9-2.88,14.22-4.44"/>
    <path class="cls-5" d="M151.09,204.41c-18.1,9.11-37.79,20.15-58.34,33.52-21.21,13.8-39.78,27.76-55.8,41"/>
    <path class="cls-5" d="M157.46,215.52c-17.7,9.02-36.82,19.8-56.75,32.69-20.34,13.15-38.33,26.43-54.06,39.11"/>
  </g>
</svg>